<?xml version="1.0" encoding="UTF-8" standalone="no"?>
<!DOCTYPE svg PUBLIC "-//W3C//DTD SVG 1.1//EN" "http://www.w3.org/Graphics/SVG/1.1/DTD/svg11.dtd">
<svg width="100%" height="100%" viewBox="0 0 2100 2100" version="1.1" xmlns="http://www.w3.org/2000/svg" xmlns:xlink="http://www.w3.org/1999/xlink" xml:space="preserve" xmlns:serif="http://www.serif.com/" style="fill-rule:evenodd;clip-rule:evenodd;stroke-linejoin:round;stroke-miterlimit:2;">
    <g id="_4" serif:id="4" transform="matrix(2.18329,0,0,2.18329,-874.298,-5431.42)">
        <g transform="matrix(1,0,0,1,0,-27)">
            <path d="M935.526,3015.79C928.315,3026.4 922.466,3037.49 918.584,3047.41C910.115,3069.07 914.435,3093.91 930.937,3110.97C942.355,3122.77 959.478,3130.7 981.844,3131.95C1024.77,3134.36 1069.73,3119.39 1111.52,3094.13C1175.61,3055.38 1232.25,2992.32 1262.88,2927.37C1295.3,2858.64 1299,2787.52 1246.11,2743.74C1142.36,2657.85 1001.57,2710.78 934.522,2787.19C930.166,2792.16 911.502,2815.26 901.579,2824.32C895.708,2829.68 890.11,2831.21 887.657,2831.21C885.359,2831.21 882.393,2830.66 879.149,2828.58C877.001,2827.21 873.983,2824.47 870.504,2820.4C857.218,2804.85 830.6,2763.6 801.773,2741.33C732.219,2687.6 602.246,2671.69 521.623,2754.61C481.487,2795.89 471.797,2848.95 477.77,2901.92C483.968,2956.87 506.922,3011.82 531.914,3054.78C582.148,3141.14 705.991,3239.57 798.325,3290.82C836.079,3311.78 868.096,3325.09 887.024,3324.93C912.296,3324.72 955.138,3304.52 1000.79,3277.04C1071.37,3234.56 1147.96,3173.78 1176.72,3133.44C1180.81,3127.69 1188.81,3126.35 1194.55,3130.45C1200.3,3134.54 1201.64,3142.53 1197.54,3148.28C1162.48,3197.47 1059.86,3276.35 977.974,3319.28C941.343,3338.48 908.548,3350.33 887.236,3350.51C865.73,3350.68 828.811,3336.99 785.914,3313.18C690.063,3259.98 561.957,3157.28 509.809,3067.64C483.196,3021.89 458.958,2963.3 452.359,2904.78C445.536,2844.28 457.445,2783.93 503.288,2736.79C593.698,2643.8 739.409,2660.84 817.407,2721.09C844.105,2741.72 876.365,2784.2 888.306,2800.52C896.808,2791.04 912.11,2773.96 915.3,2770.32C989.934,2685.27 1146.93,2628.43 1262.42,2724.04C1324.24,2775.22 1323.9,2857.94 1286.01,2938.28C1253.37,3007.49 1193.05,3074.72 1124.75,3116.01C1078.29,3144.1 1028.13,3160.16 980.416,3157.49C950.483,3155.81 927.84,3144.54 912.559,3128.75C897.941,3113.64 889.96,3094.26 888.901,3074.34C870.93,3097.03 852.488,3118.49 832.951,3133.42C814.652,3147.41 795.289,3155.84 774.642,3155.84C749.685,3155.84 734.402,3138.58 728.601,3108.9C726.94,3100.41 726.091,3090.77 725.922,3080.28C723.647,3084.36 721.299,3088.35 718.878,3092.21C699.749,3122.75 675.692,3145.45 648.529,3149.61C641.553,3150.68 635.022,3145.88 633.953,3138.91C632.884,3131.93 637.68,3125.4 644.655,3124.33C665.489,3121.14 682.533,3102.06 697.205,3078.64C712.84,3053.68 725.217,3023.33 734.202,2996.95C741.034,2959.05 751.175,2920.19 761.102,2888.69C771.704,2855.04 782.257,2829.65 787.915,2821.77C794.84,2812.13 803.3,2813.57 807.112,2815.46C809.265,2816.53 816.069,2821.77 813.981,2832.83C810.396,2851.82 777.274,2940.53 771.022,2963.76C768.047,2974.82 763.904,2988.94 758.633,3004.43C753.746,3031.96 750.815,3058.74 751.424,3081.2C751.852,3097 753.895,3110.46 758.895,3119.91C762.271,3126.29 767.254,3130.26 774.64,3130.26C794.067,3130.26 811.522,3119.31 828.333,3103.92C847.245,3086.6 865.043,3063.55 882.658,3040.79C893.587,3026.67 904.465,3012.68 915.433,3000.03C925.272,2985.83 937.186,2972.42 950.032,2962.67C968.293,2948.81 988.478,2942.33 1007.7,2947.73C1010.27,2948.16 1012.78,2949.04 1015.21,2950.34C1055.85,2967.18 1043.37,3010.76 1043.37,3010.76C1041.75,3016.48 1036.4,3020.32 1030.47,3020.04C1024.54,3019.76 1019.58,3015.43 1018.5,3009.59C1018.5,3009.59 1015.82,2994.98 1010.24,2982.95C1008.98,2980.24 1007.58,2977.66 1005.97,2975.53C1005.44,2974.83 1004.51,2973.94 1003.91,2973.4L1003.5,2973.24L1002.54,2972.9C985.906,2971.77 970.749,2981.2 955.709,2994.87C948.905,3001.06 942.193,3008.14 935.526,3015.79Z"/>
        </g>
        <path d="M883.438,2933.52C880.42,2934.42 863.772,2939.16 837.427,2942.44C793.681,2947.9 706.4,2953.01 662.282,2953.01C655.225,2953.01 649.496,2947.28 649.496,2940.22C649.496,2933.17 655.225,2927.44 662.282,2927.44C705.603,2927.44 791.306,2922.43 834.261,2917.07C863.013,2913.48 877.424,2908.5 880.019,2908.1C886.31,2907.12 889.629,2910.06 890.875,2911.17C893.764,2913.73 895.198,2916.93 895.198,2920.77C895.198,2927.49 890.016,2933 883.438,2933.52ZM872.92,2929.34C870.872,2927.07 869.625,2924.07 869.625,2920.77C869.625,2924.12 870.718,2926.97 872.92,2929.34Z"/>
    </g>
    <g id="_41" serif:id="4" transform="matrix(2.18329,0,0,2.18329,-874.298,-5431.42)">
        <g transform="matrix(1,0,0,1,0,-27)">
            <path d="M939.262,3018.75C932.359,3028.96 926.758,3039.61 923.027,3049.15C909.749,3083.1 931.428,3124.36 982.111,3127.19C1024.14,3129.54 1068.13,3114.78 1109.05,3090.05C1172.36,3051.77 1228.31,2989.49 1258.57,2925.33C1289.97,2858.76 1294.3,2789.82 1243.07,2747.41C1141.51,2663.34 1003.74,2715.54 938.108,2790.34C933.706,2795.36 914.824,2818.68 904.796,2827.84C897.625,2834.39 890.653,2835.98 887.657,2835.98C884.669,2835.98 880.798,2835.3 876.579,2832.6C874.178,2831.07 870.765,2828.05 866.877,2823.5C853.715,2808.1 827.415,2767.17 798.856,2745.1C730.877,2692.59 603.841,2676.9 525.044,2757.94C485.972,2798.12 476.696,2849.82 482.512,2901.38C488.634,2955.67 511.349,3009.94 536.038,3052.38C585.915,3138.12 708.962,3235.76 800.64,3286.65C837.436,3307.07 868.537,3320.32 886.984,3320.16C911.745,3319.96 953.6,3299.87 998.33,3272.95C1068.31,3230.83 1144.32,3170.67 1172.83,3130.67C1178.46,3122.78 1189.43,3120.94 1197.32,3126.56C1205.21,3132.19 1207.05,3143.16 1201.43,3151.05C1166.08,3200.63 1062.72,3280.23 980.19,3323.5C942.706,3343.16 909.084,3355.1 887.276,3355.28C865.288,3355.46 827.456,3341.7 783.598,3317.35C687.092,3263.79 558.19,3160.3 505.685,3070.04C478.769,3023.77 454.292,2964.5 447.618,2905.32C440.636,2843.41 452.959,2781.7 499.868,2733.46C592.104,2638.6 740.751,2655.84 820.324,2717.32C845.228,2736.55 874.979,2774.75 888.643,2793.14C897.083,2783.66 908.97,2770.3 911.714,2767.18C987.763,2680.51 1147.79,2622.95 1265.46,2720.36C1328.95,2772.93 1329.24,2857.8 1290.33,2940.31C1257.31,3010.32 1196.3,3078.33 1127.22,3120.1C1079.88,3148.71 1028.76,3164.97 980.149,3162.25C948.804,3160.5 925.132,3148.61 909.13,3132.07C896.546,3119.06 888.614,3103.06 885.507,3086.19C869.515,3105.85 853.092,3124.03 835.848,3137.21C816.654,3151.88 796.299,3160.61 774.642,3160.61C747.394,3160.61 730.252,3142.22 723.918,3109.82C723.084,3105.55 722.45,3100.99 722.003,3096.19C702.187,3127.32 677.167,3150.05 649.251,3154.33C639.673,3155.79 630.705,3149.21 629.237,3139.63C627.769,3130.05 634.354,3121.08 643.933,3119.62C663.589,3116.6 679.319,3098.2 693.162,3076.11C708.602,3051.45 720.816,3021.49 729.689,2995.43C736.539,2957.51 746.628,2918.75 756.552,2887.25C764.79,2861.11 772.86,2839.96 778.617,2828.35C782.794,2819.92 787.095,2815.03 789.604,2813.16C797.106,2807.57 803.982,2808.59 809.229,2811.19C812.045,2812.58 821.4,2819.25 818.669,2833.71C815.075,2852.75 781.897,2941.71 775.629,2965C772.649,2976.08 768.503,2990.2 763.235,3005.69C758.454,3032.73 755.595,3059 756.193,3081.08C756.528,3093.42 757.903,3104.3 761.012,3112.87C763.644,3120.13 767.398,3125.49 774.64,3125.49C792.948,3125.49 809.268,3114.91 825.111,3100.4C843.839,3083.25 861.442,3060.41 878.885,3037.87C889.794,3023.78 900.665,3009.82 911.633,2997.17C921.741,2982.61 933.971,2968.87 947.148,2958.87C966.63,2944.09 988.222,2937.4 1008.74,2943.07C1011.56,2943.57 1014.34,2944.53 1017.02,2945.91C1061.67,2964.28 1047.96,3012.07 1047.96,3012.07C1045.73,3019.91 1038.39,3025.19 1030.25,3024.8C1022.1,3024.42 1015.29,3018.48 1013.81,3010.46C1013.81,3010.46 1011.25,2996.47 1005.91,2984.96C1004.75,2982.47 1002.35,2979.02 1001.34,2977.61C986.253,2976.95 972.613,2985.95 958.919,2998.4C952.292,3004.43 945.757,3011.31 939.262,3018.75Z"/>
        </g>
        <path d="M884.349,2938.22C880.693,2939.24 862.167,2944.16 838.017,2947.18C794.124,2952.65 706.549,2957.78 662.282,2957.78C652.592,2957.78 644.725,2949.91 644.725,2940.22C644.725,2930.53 652.592,2922.67 662.282,2922.67C705.454,2922.67 790.863,2917.67 833.671,2912.33C862.336,2908.76 876.701,2903.78 879.289,2903.38C887.843,2902.05 892.345,2906.09 894.04,2907.6C898.002,2911.11 899.969,2915.5 899.969,2920.77C899.969,2929.81 893.129,2937.26 884.349,2938.22ZM869.528,2932.69C866.627,2929.56 864.854,2925.37 864.854,2920.77C864.854,2925.45 866.404,2929.42 869.528,2932.69Z"/>
    </g>
</svg>
